<?xml version="1.0" encoding="utf-8"?>
<!-- Generator: Adobe Illustrator 22.0.0, SVG Export Plug-In . SVG Version: 6.00 Build 0)  -->
<svg version="1.1" id="레이어_1" xmlns="http://www.w3.org/2000/svg" xmlns:xlink="http://www.w3.org/1999/xlink" x="0px"
	 y="0px" viewBox="0 0 42 42" style="enable-background:new 0 0 42 42;" xml:space="preserve">
<g>
	<path d="M21,0C9.4,0,0,9.4,0,21c0,11.6,9.4,21,21,21c11.6,0,21-9.4,21-21C42,9.4,32.6,0,21,0z M29.9,34.6c-0.6,0.6-1.3,1-2.1,1
		c-0.8,0-1.5-0.3-2.1-1c-0.5-0.6-0.8-1.3-0.8-2.1c0-0.8,0.3-1.5,0.8-2.1c0.6-0.6,1.3-0.9,2.1-0.9c0.8,0,1.5,0.3,2.1,0.9
		c0.6,0.6,0.8,1.3,0.8,2.1C30.8,33.4,30.5,34.1,29.9,34.6z M3,21c0-5.3,2.3-10.1,5.9-13.4v10.3h10.5v-2.9H12V5.4h0
		C14.6,3.9,17.7,3,21,3c1.9,0,3.7,0.3,5.4,0.8v1.6H23v2.9h3.4v3H23v2.9h3.4v12.7c-1,0.2-1.9,0.8-2.7,1.6c-1.2,1.1-1.7,2.5-1.7,4.2
		c0,1.6,0.6,3,1.7,4.2c0.8,0.8,1.6,1.3,2.6,1.5C24.6,38.8,22.8,39,21,39C11,39,3,31,3,21z M33.6,33.9c0.1-0.4,0.1-0.9,0.1-1.3
		c0-1.6-0.6-3-1.7-4.2c-0.8-0.8-1.6-1.3-2.6-1.5V5.1c5.7,3,9.6,9,9.6,15.9C39,26,37,30.6,33.6,33.9z"/>
	<path d="M14.2,20.9c-1.6,0-3,0.6-4.2,1.7c-1.2,1.1-1.7,2.5-1.7,4.2c0,1.6,0.6,3,1.7,4.2c1.2,1.2,2.6,1.7,4.2,1.7s3-0.6,4.2-1.7
		c1.2-1.2,1.7-2.6,1.7-4.2c0-1.6-0.6-3-1.7-4.2C17.2,21.5,15.8,20.9,14.2,20.9z M16.2,28.9c-0.6,0.6-1.3,1-2.1,1
		c-0.8,0-1.5-0.3-2.1-1c-0.5-0.6-0.8-1.3-0.8-2.1c0-0.8,0.3-1.5,0.8-2.1c0.6-0.6,1.3-0.9,2.1-0.9c0.8,0,1.5,0.3,2.1,0.9
		c0.6,0.6,0.8,1.3,0.8,2.1C17.1,27.6,16.8,28.3,16.2,28.9z"/>
</g>
</svg>
