<svg id="eejmv9k11jyw1" xmlns="http://www.w3.org/2000/svg" xmlns:xlink="http://www.w3.org/1999/xlink" viewBox="0 0 345 653" shape-rendering="geometricPrecision" text-rendering="geometricPrecision"><g id="eejmv9k11jyw2" transform="matrix(0.99995468535417 -0.00951983393958 0.00951983393958 0.99995468535417 0 -936)"><path id="eejmv9k11jyw3" d="M313.548000,561.744000C309.003000,559.471000,301.374000,557.794000,296.559000,565.694000C299.967000,558.606000,291.473000,554.656000,287.793000,552.654000C284.114000,550.652000,284.980000,544.430000,284.980000,544.430000C268.856000,556.063000,276.215000,571.050000,288.930000,570.780000C286.928000,575.649000,284.493000,578.463000,281.950000,579.707000C281.950000,579.707000,281.950000,579.707000,282.004000,579.761000L228.060000,563.746000C221.188000,561.690000,216.427000,555.359000,216.427000,548.163000L216.427000,490.107000C216.427000,460.240000,192.187000,436,162.320000,436L54.106700,436C24.239800,436,0,460.240000,0,490.107000L0,598.320000C0,628.187000,24.239800,652.427000,54.106700,652.427000L162.320000,652.427000L239.152000,652.427000C281.896000,652.427000,297.587000,598.320000,297.587000,598.320000C297.587000,598.266000,297.587000,598.212000,297.587000,598.158000C304.350000,586.254000,301.104000,575.054000,301.104000,575.054000C309.057000,582.683000,321.772000,575.595000,324.640000,557.794000C323.450000,559.471000,318.039000,564.016000,313.548000,561.744000Z" fill="rgb(0,228,255)" stroke="none" stroke-width="1"/><path id="eejmv9k11jyw4" d="M96.418100,584.847000C96.418100,577.597000,90.520500,571.700000,83.270200,571.700000C76.019900,571.700000,70.122300,577.597000,70.122300,584.847000C70.122300,592.098000,76.019900,597.995000,83.270200,597.995000C90.520500,597.995000,96.418100,592.098000,96.418100,584.847000Z" fill="rgb(237,133,176)" stroke="none" stroke-width="1"/><path id="eejmv9k11jyw5" d="M0.595184,598.428000C0.865717,598.645000,1.298560,598.807000,1.731410,598.969000C2.164260,599.132000,2.597130,599.240000,3.029980,599.348000C3.895690,599.564000,4.815520,599.727000,5.681220,599.835000C7.466750,600.106000,9.306370,600.322000,11.091900,600.484000C14.717000,600.809000,18.342200,601.025000,21.967300,601.079000C29.217600,601.242000,36.522000,600.971000,43.772300,600.214000C50.968500,599.456000,58.164700,598.158000,65.036200,595.939000C68.445000,594.803000,71.799600,593.396000,74.829600,591.557000C77.913600,589.717000,80.673100,587.390000,82.729100,584.523000C82.945500,584.252000,83.324300,584.198000,83.594800,584.360000C83.865400,584.577000,83.919500,584.956000,83.757200,585.226000C81.647000,588.364000,78.779300,590.907000,75.641200,592.855000C72.503000,594.857000,69.040100,596.318000,65.577300,597.508000C62.060400,598.699000,58.489300,599.564000,54.864200,600.268000C51.239000,600.971000,47.613900,601.458000,43.934600,601.837000C40.255400,602.216000,36.630200,602.378000,32.951000,602.486000C29.271700,602.540000,25.592500,602.540000,21.967300,602.378000C18.288100,602.216000,14.662900,601.945000,10.983700,601.512000C9.144050,601.296000,7.358510,600.971000,5.518880,600.647000C4.599060,600.430000,3.733360,600.268000,2.813540,599.997000C2.380690,599.889000,1.947840,599.727000,1.460880,599.564000C1.028020,599.402000,0.595190,599.240000,0.162337,598.861000C0.054123,598.753000,0.054123,598.591000,0.162337,598.482000C0.270550,598.320000,0.432864,598.320000,0.595184,598.428000Z" fill="rgb(0,0,36)" stroke="none" stroke-width="1"/><path id="eejmv9k11jyw6" d="M80.943700,580.573000C81.214200,581.331000,81.647100,582.088000,82.079900,582.737000C82.566900,583.332000,83.162000,583.819000,83.811300,584.144000C84.514700,584.415000,85.272200,584.523000,86.083800,584.577000C86.516700,584.577000,86.895400,584.523000,87.328300,584.523000C87.761100,584.469000,88.194000,584.360000,88.626800,584.360000L88.680900,584.360000C88.897400,584.360000,89.113800,584.523000,89.167900,584.739000C89.167900,584.902000,89.059700,585.064000,88.951500,585.172000C88.518600,585.389000,88.085800,585.551000,87.652900,585.713000C87.166000,585.821000,86.733100,585.984000,86.246100,586.038000C85.272200,586.146000,84.190100,586.092000,83.216200,585.659000C82.242200,585.226000,81.430700,584.469000,80.889600,583.603000C80.402600,582.737000,80.132100,581.763000,80.132100,580.735000C80.132100,580.519000,80.348500,580.302000,80.564900,580.302000C80.727200,580.248000,80.889600,580.357000,80.943700,580.573000Z" fill="rgb(0,0,36)" stroke="none" stroke-width="1"/><path id="eejmv9k11jyw7" d="M110.215000,454.829000C110.215000,456.452000,107.131000,457.805000,103.290000,457.805000C99.448100,457.805000,96.364000,456.452000,96.364000,454.829000C96.364000,453.206000,99.448100,451.853000,103.290000,451.853000C107.131000,451.853000,110.215000,453.206000,110.215000,454.829000Z" fill="rgb(0,73,94)" stroke="none" stroke-width="1"/><path id="eejmv9k11jyw8" d="M102.532000,453.152000C102.532000,447.038000,103.614000,442.601000,98.961100,437.948000C96.796800,435.783000,90.033500,436.595000,89.059600,440.599000C87.274100,447.741000,96.309900,447.849000,93.766900,442.547000C93.766900,442.547000,92.793000,439.030000,94.957200,438.597000C97.013300,438.218000,98.095400,439.355000,99.123400,440.707000C101.558000,443.954000,101.234000,450.609000,101.558000,453.260000C101.883000,453.152000,102.208000,453.098000,102.532000,453.152000Z" clip-rule="evenodd" fill="rgb(100,197,235)" fill-rule="evenodd" stroke="none" stroke-width="1"/><path id="eejmv9k11jyw9" d="M103.885000,453.152000C103.885000,447.038000,102.803000,442.601000,107.456000,437.948000C109.620000,435.783000,116.384000,436.595000,117.357000,440.599000C119.143000,447.741000,110.107000,447.849000,112.650000,442.547000C112.650000,442.547000,113.624000,439.030000,111.460000,438.597000C109.404000,438.218000,108.322000,439.355000,107.294000,440.707000C104.859000,443.954000,105.183000,450.609000,104.859000,453.260000C104.480000,453.206000,104.155000,453.152000,103.885000,453.152000Z" clip-rule="evenodd" fill="rgb(100,197,235)" fill-rule="evenodd" stroke="none" stroke-width="1"/><path id="eejmv9k11jyw10" d="M6.871460,624.832000C16.123700,641.281000,33.816600,652.427000,54.052500,652.427000L162.266000,652.427000L237.204000,652.427000C234.065000,632.840000,206.687000,626.943000,195.596000,625.373000C193.107000,624.995000,190.564000,624.832000,188.021000,624.832000L6.871460,624.832000Z" fill="rgb(131,230,249)" stroke="none" stroke-width="1"/><path id="eejmv9k11jyw11" d="M157.721000,617.636000C157.721000,617.636000,167.352000,643.716000,181.907000,643.391000C196.516000,643.012000,189.752000,619.909000,175.143000,611.035000C160.535000,602.162000,153.501000,608.654000,157.721000,617.636000Z" fill="rgb(0,185,255)" stroke="none" stroke-width="1"/><path id="eejmv9k11jyw12" d="M54.864100,579.653000C62.633500,579.653000,68.931900,573.355000,68.931900,565.586000C68.931900,557.816000,62.633500,551.518000,54.864100,551.518000C47.094700,551.518000,40.796400,557.816000,40.796400,565.586000C40.796400,573.355000,47.094700,579.653000,54.864100,579.653000Z" fill="rgb(255,255,255)" stroke="none" stroke-width="1"/><path id="eejmv9k11jyw13" d="M54.864200,574.189000C59.615500,574.189000,63.467200,570.337000,63.467200,565.586000C63.467200,560.834000,59.615500,556.983000,54.864200,556.983000C50.112900,556.983000,46.261200,560.834000,46.261200,565.586000C46.261200,570.337000,50.112900,574.189000,54.864200,574.189000Z" fill="rgb(77,77,77)" stroke="none" stroke-width="1"/></g><g id="eejmv9k11jyw14" transform="matrix(1 0 0 1 0 -926.17633057000000)"><path id="eejmv9k11jyw15" d="M266.616000,551.275000L266.597000,544.101000C266.575000,542.115000,268.199000,540.490000,270.212000,540.515000C272.199000,540.492000,273.823000,542.116000,273.799000,544.129000L273.817000,551.303000C273.839000,553.290000,272.216000,554.915000,270.202000,554.890000C268.216000,554.912000,266.638000,553.262000,266.616000,551.275000Z" fill="rgb(255,184,0)" stroke="none" stroke-width="1"/><path id="eejmv9k11jyw16" d="M241.961000,542.768000L245.565000,536.564000C246.577000,534.855000,248.749000,534.288000,250.478000,535.227000C252.187000,536.239000,252.801000,538.384000,251.815000,540.140000L248.212000,546.344000C247.200000,548.053000,245.028000,548.620000,243.299000,547.681000C241.590000,546.669000,240.949000,544.477000,241.961000,542.768000Z" fill="rgb(255,184,0)" stroke="none" stroke-width="1"/><path id="eejmv9k11jyw17" d="M239.565000,483.861000C239.538000,483.814000,239.484000,483.721000,239.457000,483.674000L235.994000,477.676000C235.669000,477.114000,235.231000,476.679000,234.679000,476.373000L228.476000,472.770000C226.767000,471.757000,224.548000,472.351000,223.562000,474.107000C222.550000,475.816000,223.144000,478.035000,224.900000,479.021000L230.296000,482.090000L233.272000,487.245000C233.299000,487.292000,233.353000,487.385000,233.380000,487.432000L239.565000,483.861000Z" fill="rgb(254,255,39)" stroke="none" stroke-width="1"/><path id="eejmv9k11jyw18" d="M216.354000,501.011000C216.331000,499.024000,217.955000,497.400000,219.968000,497.424000L227.142000,497.406000C229.129000,497.384000,230.754000,499.007000,230.729000,501.021000C230.751000,503.007000,229.128000,504.632000,227.114000,504.607000L219.940000,504.626000C217.927000,504.601000,216.376000,502.997000,216.354000,501.011000Z" fill="rgb(254,255,39)" stroke="none" stroke-width="1"/><path id="eejmv9k11jyw19" d="M234.657000,525.680000L228.472000,529.251000C226.738000,530.252000,224.548000,529.705000,223.520000,527.924000C222.546000,526.237000,223.066000,524,224.847000,522.972000L231.032000,519.401000C232.766000,518.400000,235.010000,519.041000,235.984000,520.728000C237.012000,522.509000,236.438000,524.652000,234.657000,525.680000Z" fill="rgb(254,255,39)" stroke="none" stroke-width="1"/><path id="eejmv9k11jyw20" d="M234.657000,525.680000L228.472000,529.251000C226.738000,530.252000,224.548000,529.705000,223.520000,527.924000L235.937000,520.755000C237.012000,522.509000,236.438000,524.652000,234.657000,525.680000Z" fill="rgb(255,184,0)" stroke="none" stroke-width="1"/><path id="eejmv9k11jyw21" d="M267.360000,444.135000C267.322000,443.095000,266.218000,428.738000,266.269000,429.583000C266.169000,428.328000,265.473000,427.231000,264.370000,426.618000C263.266000,426.006000,261.911000,426.039000,260.833000,426.661000L235.858000,441.080000C234.780000,441.703000,234.074000,442.860000,234.053000,444.122000C234.031000,445.384000,234.634000,446.535000,235.671000,447.249000C236.377000,447.715000,248.232000,455.803000,247.552000,455.384000C247.653000,455.450000,247.660000,455.571000,247.761000,455.638000L261.059000,456.270000L267.535000,444.221000C267.508000,444.174000,267.434000,444.154000,267.360000,444.135000Z" fill="rgb(255,234,0)" stroke="none" stroke-width="1"/><path id="eejmv9k11jyw22" d="M288.941000,461.602000L292.517000,455.351000C293.529000,453.642000,295.721000,453.001000,297.430000,454.014000C299.186000,454.999000,299.780000,457.218000,298.767000,458.927000L295.191000,465.178000C294.179000,466.887000,291.987000,467.528000,290.278000,466.515000C288.522000,465.530000,287.928000,463.311000,288.941000,461.602000Z" fill="rgb(254,255,39)" stroke="none" stroke-width="1"/><path id="eejmv9k11jyw23" d="M315.956000,478.743000L309.724000,482.341000C307.990000,483.342000,305.800000,482.794000,304.772000,481.014000C303.744000,479.233000,304.318000,477.090000,306.098000,476.062000L312.331000,472.464000C314.064000,471.463000,316.255000,472.010000,317.283000,473.791000C318.311000,475.571000,317.689000,477.742000,315.956000,478.743000Z" fill="rgb(254,255,39)" stroke="none" stroke-width="1"/><path id="eejmv9k11jyw24" d="M304.799000,481.061000L317.310000,473.837000C318.311000,475.571000,317.763000,477.761000,315.983000,478.789000L309.751000,482.388000C307.943000,483.369000,305.800000,482.794000,304.799000,481.061000Z" fill="rgb(255,184,0)" stroke="none" stroke-width="1"/><path id="eejmv9k11jyw25" d="M310.177000,502.821000C309.880000,502.306000,309.696000,501.662000,309.706000,501.031000C309.684000,499.045000,311.308000,497.420000,313.321000,497.445000L320.495000,497.426000C322.482000,497.404000,324.106000,499.028000,324.082000,501.041000C324.104000,503.028000,322.480000,504.652000,320.467000,504.628000L313.293000,504.646000C311.957000,504.605000,310.799000,503.899000,310.177000,502.821000Z" fill="rgb(255,184,0)" stroke="none" stroke-width="1"/><path id="eejmv9k11jyw26" d="M304.441000,524.376000C303.819000,523.298000,303.786000,521.943000,304.418000,520.766000C305.431000,519.056000,307.603000,518.490000,309.332000,519.428000L315.535000,523.031000C317.217000,523.997000,317.811000,526.216000,316.873000,527.945000C315.860000,529.654000,313.688000,530.221000,311.959000,529.282000L305.756000,525.679000C305.177000,525.326000,304.739000,524.892000,304.441000,524.376000Z" fill="rgb(255,184,0)" stroke="none" stroke-width="1"/><path id="eejmv9k11jyw27" d="M285.779000,547.458000L288.305000,537.441000C288.820000,535.519000,290.788000,534.383000,292.710000,534.898000L302.648000,537.719000C304.570000,538.234000,305.706000,540.202000,305.191000,542.124000C304.676000,544.045000,302.708000,545.182000,300.787000,544.667000L294.322000,542.776000L292.727000,549.320000C292.212000,551.242000,290.244000,552.378000,288.322000,551.863000C286.401000,551.348000,285.237000,549.333000,285.779000,547.458000Z" fill="rgb(255,184,0)" stroke="none" stroke-width="1"/><path id="eejmv9k11jyw28" d="M290.632000,543.095000C288.443000,544.172000,286.125000,545.135000,283.859000,545.756000C263.544000,551.799000,240.891000,543.511000,229.799000,524.299000C221.494000,509.914000,221.741000,493.027000,228.820000,479.318000C230.105000,476.890000,231.517000,474.575000,233.132000,472.393000L245.768000,479.780000C252.017000,490.604000,253.697000,500.006000,260.257000,506.714000C260.850000,507.309000,261.416000,507.857000,262.056000,508.424000C270.301000,515.347000,285.035000,518.899000,292.474000,531.785000L290.632000,543.095000Z" fill="rgb(255,255,255)" stroke="none" stroke-width="1"/><path id="eejmv9k11jyw29" d="M293.880000,541.470000C292.802000,542.092000,291.791000,542.613000,290.632000,543.095000L286.196000,535.410000C278.756000,522.524000,270.301000,515.347000,262.056000,508.425000C261.416000,507.857000,260.756000,507.363000,260.116000,506.796000C252.760000,500.547000,245.758000,494.155000,239.536000,483.378000L233.206000,472.413000C236.869000,467.612000,241.467000,463.457000,246.997000,460.265000C247.793000,459.805000,248.447000,458.990000,248.658000,458.056000C248.942000,457.142000,248.569000,456.171000,247.808000,455.611000L267.535000,444.221000C279.778000,450.710000,299.289000,457.126000,311.004000,477.416000C323.935000,499.814000,316.231000,528.565000,293.880000,541.470000Z" fill="rgb(254,255,39)" stroke="none" stroke-width="1"/><path id="eejmv9k11jyw30" d="M293.880000,541.470000C292.802000,542.092000,291.791000,542.613000,290.632000,543.095000L286.196000,535.410000C278.756000,522.524000,270.301000,515.347000,262.056000,508.424000C261.416000,507.857000,260.756000,507.363000,260.116000,506.796000L311.004000,477.416000C323.935000,499.814000,316.231000,528.565000,293.880000,541.470000Z" fill="rgb(255,212,0)" stroke="none" stroke-width="1"/><path id="eejmv9k11jyw31" d="M284.077000,517.890000C281.101000,512.736000,282.864000,506.157000,288.018000,503.182000C293.173000,500.206000,299.751000,501.968000,302.727000,507.123000C305.703000,512.277000,303.940000,518.855000,298.786000,521.831000C293.678000,524.780000,287.053000,523.044000,284.077000,517.890000Z" fill="rgb(255,255,255)" stroke="none" stroke-width="1"/><path id="eejmv9k11jyw32" d="M290.356000,514.265000C289.382000,512.578000,289.930000,510.388000,291.663000,509.387000C293.350000,508.413000,295.541000,508.960000,296.541000,510.694000C297.542000,512.427000,296.921000,514.598000,295.234000,515.572000C293.501000,516.573000,291.330000,515.952000,290.356000,514.265000Z" fill="rgb(104,84,79)" stroke="none" stroke-width="1"/><path id="eejmv9k11jyw33" d="M254.678000,480.821000C252.945000,481.822000,250.727000,481.228000,249.726000,479.494000C248.725000,477.760000,249.320000,475.543000,251.053000,474.542000C252.787000,473.541000,255.004000,474.135000,256.005000,475.869000C257.006000,477.603000,256.412000,479.820000,254.678000,480.821000Z" fill="rgb(255,212,0)" stroke="none" stroke-width="1"/><path id="eejmv9k11jyw34" d="M284.701000,496.787000C282.968000,497.788000,280.777000,497.241000,279.749000,495.460000C278.721000,493.680000,279.296000,491.536000,281.076000,490.508000C282.857000,489.480000,285,490.054000,286.028000,491.835000C287.056000,493.616000,286.482000,495.759000,284.701000,496.787000Z" fill="rgb(255,212,0)" stroke="none" stroke-width="1"/><path id="eejmv9k11jyw35" d="M266.684000,465.580000C264.950000,466.581000,262.733000,465.987000,261.732000,464.253000C260.731000,462.519000,261.325000,460.302000,263.059000,459.301000C264.793000,458.300000,267.010000,458.894000,268.011000,460.628000C269.012000,462.362000,268.418000,464.579000,266.684000,465.580000Z" fill="rgb(255,212,0)" stroke="none" stroke-width="1"/><path id="eejmv9k11jyw36" d="M272.600000,482.969000C270.866000,483.970000,268.649000,483.376000,267.648000,481.642000C266.647000,479.909000,267.241000,477.691000,268.975000,476.690000C270.709000,475.689000,272.926000,476.283000,273.927000,478.017000C274.928000,479.751000,274.287000,481.995000,272.600000,482.969000Z" fill="rgb(255,212,0)" stroke="none" stroke-width="1"/><path id="eejmv9k11jyw37" d="M297.212000,489.564000C295.479000,490.565000,293.288000,490.018000,292.260000,488.237000C291.232000,486.456000,291.807000,484.313000,293.587000,483.285000C295.368000,482.257000,297.511000,482.831000,298.539000,484.612000C299.567000,486.392000,298.946000,488.563000,297.212000,489.564000Z" fill="rgb(255,212,0)" stroke="none" stroke-width="1"/><path id="eejmv9k11jyw38" d="M286.391000,470.821000C284.657000,471.822000,282.440000,471.228000,281.439000,469.494000C280.438000,467.760000,281.032000,465.543000,282.766000,464.542000C284.500000,463.541000,286.717000,464.135000,287.718000,465.869000C288.719000,467.603000,288.125000,469.820000,286.391000,470.821000Z" fill="rgb(255,212,0)" stroke="none" stroke-width="1"/><path id="eejmv9k11jyw39" d="M279.823000,495.480000L286.055000,491.882000C287.056000,493.616000,286.509000,495.806000,284.729000,496.834000C282.948000,497.862000,280.824000,497.214000,279.823000,495.480000Z" fill="rgb(255,184,0)" stroke="none" stroke-width="1"/><path id="eejmv9k11jyw40" d="M292.288000,488.284000L298.520000,484.686000C299.521000,486.420000,298.973000,488.610000,297.193000,489.638000C295.412000,490.666000,293.289000,490.018000,292.288000,488.284000Z" fill="rgb(255,184,0)" stroke="none" stroke-width="1"/><path id="eejmv9k11jyw41" d="M271.305000,520.765000C271.725000,520.086000,272.212000,519.305000,271.831000,518.213000C271.362000,510.799000,270.826000,505.110000,270.331000,500.898000C269.834000,496.249000,269.197000,493.306000,268.571000,491.356000C268.571000,491.356000,268.617000,491.329000,268.543000,491.309000C267.502000,488.099000,266.441000,487.775000,265.260000,487.894000C256.548000,486.114000,245.129000,492.957000,242.824000,501.410000C242.428000,502.888000,243.033000,504.476000,244.271000,505.323000C245.328000,505.962000,248.607000,508.505000,252.412000,511.306000C258.580000,515.930000,265.873000,521.528000,266.277000,521.795000C267.966000,522.881000,270.192000,522.408000,271.305000,520.765000Z" fill="rgb(255,212,0)" stroke="none" stroke-width="1"/></g><g id="eejmv9k11jyw42" transform="matrix(1 0 0 1 0 -828)"><path id="eejmv9k11jyw43" d="M263.774000,382.107000L272.106000,382.107000C281.899000,382.107000,289.799000,374.153000,289.799000,364.414000L281.521000,364.414000C271.727000,364.414000,263.774000,372.313000,263.774000,382.107000Z" fill="rgb(255,91,116)" stroke="none" stroke-width="1"/><path id="eejmv9k11jyw44" d="M263.774000,382.107000L272.106000,382.107000C281.899000,382.107000,289.799000,390.060000,289.799000,399.800000L281.521000,399.800000C271.727000,399.800000,263.774000,391.900000,263.774000,382.107000Z" fill="rgb(255,91,116)" stroke="none" stroke-width="1"/><path id="eejmv9k11jyw45" d="M235.963000,328L84.464000,328C66.554700,328,52,342.555000,52,360.464000L52,400.503000L61.739200,400.503000C61.739200,400.503000,62.063800,412.028000,54.651200,416.573000C59.629000,428.151000,71.099700,436.213000,84.464000,436.213000L235.963000,436.213000C253.872000,436.213000,268.427000,421.659000,268.427000,403.749000L268.427000,360.464000C268.427000,342.555000,253.872000,328,235.963000,328Z" fill="rgb(255,91,116)" stroke="none" stroke-width="1"/><path id="eejmv9k11jyw46" d="M85.870800,328L84.464000,328C66.554700,328,52,342.555000,52,360.464000L52,400.503000L61.739200,400.503000C61.739200,400.503000,62.063800,412.028000,54.651200,416.573000C56.166200,420.144000,58.330500,423.390000,60.981700,426.150000C61.035800,426.204000,61.089900,426.258000,61.089900,426.312000C61.306400,426.582000,61.576900,426.799000,61.793300,427.069000C61.847400,427.123000,61.901500,427.178000,61.955600,427.232000C62.713100,427.935000,63.470600,428.638000,64.282200,429.234000C64.390400,429.342000,64.498600,429.396000,64.606900,429.504000C64.823300,429.666000,65.039700,429.829000,65.310200,430.045000C65.418500,430.153000,65.580800,430.262000,65.743100,430.316000C66.121800,430.586000,66.500600,430.857000,66.879300,431.073000C67.041700,431.181000,67.258100,431.290000,67.420400,431.398000C67.636800,431.506000,67.853300,431.668000,68.069700,431.777000C68.286100,431.885000,68.448400,431.993000,68.664900,432.101000C68.881300,432.209000,69.043600,432.318000,69.260000,432.426000C69.476500,432.534000,69.747000,432.696000,70.017500,432.805000C70.234000,432.913000,70.450400,433.021000,70.666800,433.129000C70.991400,433.292000,71.370200,433.454000,71.694800,433.616000C71.857200,433.670000,72.019500,433.779000,72.235900,433.833000C72.506400,433.941000,72.777000,434.049000,73.047500,434.157000C73.209800,434.211000,73.372100,434.266000,73.588600,434.374000C73.913200,434.482000,74.292000,434.590000,74.616600,434.752000C74.724800,434.807000,74.833000,434.807000,74.887100,434.861000C75.320000,435.023000,75.752800,435.131000,76.239800,435.239000C76.402100,435.294000,76.564400,435.294000,76.672600,435.348000C76.997300,435.456000,77.321900,435.510000,77.646600,435.564000C77.808900,435.618000,77.971200,435.618000,78.133500,435.672000C78.566400,435.781000,78.999200,435.835000,79.432100,435.889000C79.486200,435.889000,79.486200,435.889000,79.540300,435.889000C80.027300,435.943000,80.514200,435.997000,81.001200,436.051000C81.163500,436.051000,81.271700,436.105000,81.434000,436.105000C81.812800,436.159000,82.137400,436.159000,82.516200,436.213000C82.678500,436.213000,82.786700,436.213000,82.949000,436.213000C83.436000,436.213000,83.922900,436.267000,84.464000,436.267000L86.466000,436.267000C106.107000,389.682000,99.072800,349.643000,85.870800,328Z" fill="rgb(255,141,174)" stroke="none" stroke-width="1"/><path id="eejmv9k11jyw47" d="M71.640700,391.738000C76.989600,391.738000,81.325800,387.402000,81.325800,382.053000C81.325800,376.704000,76.989600,372.367000,71.640700,372.367000C66.291700,372.367000,61.955600,376.704000,61.955600,382.053000C61.955600,387.402000,66.291700,391.738000,71.640700,391.738000Z" fill="rgb(255,255,255)" stroke="none" stroke-width="1"/><path id="eejmv9k11jyw48" d="M71.640700,387.301000C69.422300,387.301000,67.420300,385.894000,66.717000,383.838000C66.013600,381.782000,66.608700,379.455000,68.286100,378.049000C70.017500,376.588000,72.560500,376.426000,74.454200,377.616000C76.293900,378.752000,77.267800,380.970000,76.834900,383.081000C76.293900,385.461000,74.075500,387.301000,71.640700,387.301000Z" fill="rgb(57,59,133)" stroke="none" stroke-width="1"/><path id="eejmv9k11jyw49" d="M117.577000,339.038000C112.329000,339.038000,106.215000,345.260000,106.215000,345.260000C106.215000,345.260000,112.329000,351.104000,117.577000,351.104000C122.826000,351.104000,125.261000,348.615000,125.261000,345.260000C125.261000,341.960000,122.880000,339.038000,117.577000,339.038000Z" fill="rgb(244,62,99)" stroke="none" stroke-width="1"/><path id="eejmv9k11jyw50" d="M117.577000,364.143000C112.329000,364.143000,106.215000,370.366000,106.215000,370.366000C106.215000,370.366000,112.329000,376.209000,117.577000,376.209000C122.826000,376.209000,125.261000,373.720000,125.261000,370.366000C125.261000,367.011000,122.880000,364.143000,117.577000,364.143000Z" fill="rgb(244,62,99)" stroke="none" stroke-width="1"/><path id="eejmv9k11jyw51" d="M117.577000,389.195000C112.329000,389.195000,106.215000,395.417000,106.215000,395.417000C106.215000,395.417000,112.329000,401.261000,117.577000,401.261000C122.826000,401.261000,125.261000,398.772000,125.261000,395.417000C125.261000,392.116000,122.880000,389.195000,117.577000,389.195000Z" fill="rgb(244,62,99)" stroke="none" stroke-width="1"/><path id="eejmv9k11jyw52" d="M117.577000,414.246000C112.329000,414.246000,106.215000,420.468000,106.215000,420.468000C106.215000,420.468000,112.329000,426.312000,117.577000,426.312000C122.826000,426.312000,125.261000,423.823000,125.261000,420.468000C125.261000,417.168000,122.880000,414.246000,117.577000,414.246000Z" fill="rgb(244,62,99)" stroke="none" stroke-width="1"/><path id="eejmv9k11jyw53" d="M177.095000,339.038000C171.846000,339.038000,165.732000,345.260000,165.732000,345.260000C165.732000,345.260000,171.846000,351.104000,177.095000,351.104000C182.343000,351.104000,184.778000,348.615000,184.778000,345.260000C184.778000,341.960000,182.397000,339.038000,177.095000,339.038000Z" fill="rgb(244,62,99)" stroke="none" stroke-width="1"/><path id="eejmv9k11jyw54" d="M177.095000,364.143000C171.846000,364.143000,165.732000,370.366000,165.732000,370.366000C165.732000,370.366000,171.846000,376.209000,177.095000,376.209000C182.343000,376.209000,184.778000,373.720000,184.778000,370.366000C184.778000,367.011000,182.397000,364.143000,177.095000,364.143000Z" fill="rgb(244,62,99)" stroke="none" stroke-width="1"/><path id="eejmv9k11jyw55" d="M177.095000,389.195000C171.846000,389.195000,165.732000,395.417000,165.732000,395.417000C165.732000,395.417000,171.846000,401.261000,177.095000,401.261000C182.343000,401.261000,184.778000,398.772000,184.778000,395.417000C184.778000,392.116000,182.397000,389.195000,177.095000,389.195000Z" fill="rgb(244,62,99)" stroke="none" stroke-width="1"/><path id="eejmv9k11jyw56" d="M177.095000,414.246000C171.846000,414.246000,165.732000,420.468000,165.732000,420.468000C165.732000,420.468000,171.846000,426.312000,177.095000,426.312000C182.343000,426.312000,184.778000,423.823000,184.778000,420.468000C184.778000,417.168000,182.397000,414.246000,177.095000,414.246000Z" fill="rgb(244,62,99)" stroke="none" stroke-width="1"/><path id="eejmv9k11jyw57" d="M236.612000,339.038000C231.364000,339.038000,225.250000,345.260000,225.250000,345.260000C225.250000,345.260000,231.364000,351.104000,236.612000,351.104000C241.860000,351.104000,244.295000,348.615000,244.295000,345.260000C244.295000,341.960000,241.914000,339.038000,236.612000,339.038000Z" fill="rgb(244,62,99)" stroke="none" stroke-width="1"/><path id="eejmv9k11jyw58" d="M236.612000,364.143000C231.364000,364.143000,225.250000,370.366000,225.250000,370.366000C225.250000,370.366000,231.364000,376.209000,236.612000,376.209000C241.860000,376.209000,244.295000,373.720000,244.295000,370.366000C244.295000,367.011000,241.914000,364.143000,236.612000,364.143000Z" fill="rgb(244,62,99)" stroke="none" stroke-width="1"/><path id="eejmv9k11jyw59" d="M236.612000,389.195000C231.364000,389.195000,225.250000,395.417000,225.250000,395.417000C225.250000,395.417000,231.364000,401.261000,236.612000,401.261000C241.860000,401.261000,244.295000,398.772000,244.295000,395.417000C244.295000,392.116000,241.914000,389.195000,236.612000,389.195000Z" fill="rgb(244,62,99)" stroke="none" stroke-width="1"/><path id="eejmv9k11jyw60" d="M236.612000,414.246000C231.364000,414.246000,225.250000,420.468000,225.250000,420.468000C225.250000,420.468000,231.364000,426.312000,236.612000,426.312000C241.860000,426.312000,244.295000,423.823000,244.295000,420.468000C244.295000,417.168000,241.914000,414.246000,236.612000,414.246000Z" fill="rgb(244,62,99)" stroke="none" stroke-width="1"/><path id="eejmv9k11jyw61" d="M148.959000,401.260000C143.711000,401.260000,137.597000,407.483000,137.597000,407.483000C137.597000,407.483000,143.711000,413.326000,148.959000,413.326000C154.208000,413.326000,156.642000,410.837000,156.642000,407.483000C156.642000,404.182000,154.262000,401.260000,148.959000,401.260000Z" fill="rgb(244,62,99)" stroke="none" stroke-width="1"/><path id="eejmv9k11jyw62" d="M148.959000,376.101000C143.711000,376.101000,137.597000,382.323000,137.597000,382.323000C137.597000,382.323000,143.711000,388.167000,148.959000,388.167000C154.208000,388.167000,156.642000,385.678000,156.642000,382.323000C156.642000,379.023000,154.262000,376.101000,148.959000,376.101000Z" fill="rgb(244,62,99)" stroke="none" stroke-width="1"/><path id="eejmv9k11jyw63" d="M148.959000,350.941000C143.711000,350.941000,137.597000,357.164000,137.597000,357.164000C137.597000,357.164000,143.711000,363.007000,148.959000,363.007000C154.208000,363.007000,156.642000,360.518000,156.642000,357.164000C156.642000,353.863000,154.262000,350.941000,148.959000,350.941000Z" fill="rgb(244,62,99)" stroke="none" stroke-width="1"/><path id="eejmv9k11jyw64" d="M207.935000,401.260000C202.687000,401.260000,196.573000,407.483000,196.573000,407.483000C196.573000,407.483000,202.687000,413.326000,207.935000,413.326000C213.184000,413.326000,215.619000,410.837000,215.619000,407.483000C215.619000,404.182000,213.238000,401.260000,207.935000,401.260000Z" fill="rgb(244,62,99)" stroke="none" stroke-width="1"/><path id="eejmv9k11jyw65" d="M207.935000,376.101000C202.687000,376.101000,196.573000,382.323000,196.573000,382.323000C196.573000,382.323000,202.687000,388.167000,207.935000,388.167000C213.184000,388.167000,215.619000,385.678000,215.619000,382.323000C215.619000,379.023000,213.238000,376.101000,207.935000,376.101000Z" fill="rgb(244,62,99)" stroke="none" stroke-width="1"/><path id="eejmv9k11jyw66" d="M207.935000,350.941000C202.687000,350.941000,196.573000,357.164000,196.573000,357.164000C196.573000,357.164000,202.687000,363.007000,207.935000,363.007000C213.184000,363.007000,215.619000,360.518000,215.619000,357.164000C215.619000,353.863000,213.238000,350.941000,207.935000,350.941000Z" fill="rgb(244,62,99)" stroke="none" stroke-width="1"/><path id="eejmv9k11jyw67" d="M129.102000,379.942000C135.757000,376.642000,140.951000,374.261000,144.847000,372.584000C149.122000,370.690000,151.989000,369.770000,153.991000,369.338000C153.991000,369.338000,153.991000,369.283000,154.045000,369.338000C157.346000,368.634000,158.157000,369.392000,158.644000,370.474000C164.542000,377.129000,164.326000,390.439000,158.157000,396.661000C157.075000,397.744000,155.398000,398.014000,154.045000,397.365000C152.963000,396.770000,149.122000,395.201000,144.793000,393.307000C137.705000,390.277000,129.210000,386.760000,128.777000,386.543000C126.992000,385.624000,127.966000,380.159000,129.102000,379.942000Z" fill="rgb(254,195,243)" stroke="none" stroke-width="1"/></g><g id="eejmv9k11jyw68" transform="matrix(1 0 0 1 0 -606.56300353999995)"><path id="eejmv9k11jyw69" d="M197.537000,106.563000L152.087000,106.563000C133.258000,106.563000,118,121.821000,118,140.650000L118,243.453000C118,246.429000,120.435000,248.864000,123.411000,248.864000L226.213000,248.864000C229.189000,248.864000,231.624000,246.429000,231.624000,243.453000L231.624000,140.650000C231.624000,121.821000,216.366000,106.563000,197.537000,106.563000Z" fill="rgb(243,243,243)" fill-opacity="0.6" stroke="none" stroke-width="1"/><path id="eejmv9k11jyw70" d="M222.642000,247.673000C222.642000,247.673000,227.296000,248.323000,227.296000,232.091000L227.296000,157.423000C227.296000,137.674000,212.957000,121.713000,193.208000,121.713000L156.416000,121.713000C136.667000,121.713000,122.329000,137.674000,122.329000,157.423000L122.329000,236.960000C122.329000,247.132000,126.332000,247.295000,127.956000,247.132000C128.118000,247.132000,128.226000,247.078000,128.388000,247.078000C128.388000,247.078000,128.226000,247.132000,127.956000,247.132000C123.032000,247.836000,121.246000,252.705000,120.705000,257.358000L120.705000,318.445000C120.705000,323.856000,124.330000,328.292000,128.821000,328.292000C133.312000,328.292000,136.937000,323.910000,136.937000,318.445000L136.937000,255.898000C136.937000,254.112000,138.398000,252.651000,140.184000,252.651000C141.969000,252.651000,143.430000,254.112000,143.430000,255.898000L143.430000,318.445000C143.430000,323.856000,147.055000,328.292000,151.546000,328.292000C156.037000,328.292000,159.662000,323.910000,159.662000,318.445000L159.662000,255.898000C159.662000,254.112000,161.123000,252.651000,162.909000,252.651000L163.450000,252.651000C165.235000,252.651000,166.696000,254.112000,166.696000,255.898000L166.696000,318.445000C166.696000,323.856000,170.321000,328.292000,174.812000,328.292000C179.303000,328.292000,182.928000,323.910000,182.928000,318.445000L182.928000,255.898000C182.928000,254.112000,184.389000,252.651000,186.174000,252.651000L186.715000,252.651000C188.501000,252.651000,189.962000,254.112000,189.962000,255.898000L189.962000,318.445000C189.962000,323.856000,193.587000,328.292000,198.078000,328.292000C202.569000,328.292000,206.194000,323.910000,206.194000,318.445000L206.194000,255.898000C206.194000,254.112000,207.655000,252.651000,209.440000,252.651000C211.226000,252.651000,212.687000,254.112000,212.687000,255.898000L212.687000,318.445000C212.687000,323.856000,216.312000,328.292000,220.803000,328.292000C225.294000,328.292000,228.919000,323.910000,228.919000,318.445000L228.919000,260.388000C228.919000,249.784000,222.642000,247.673000,222.642000,247.673000Z" fill="rgb(162,229,217)" stroke="none" stroke-width="1"/><path id="eejmv9k11jyw71" d="M127.469000,247.187000C127.685000,247.187000,127.847000,247.187000,128.010000,247.132000C128.172000,247.132000,128.280000,247.078000,128.443000,247.078000C128.064000,247.132000,127.739000,247.132000,127.469000,247.187000Z" fill="rgb(4,178,147)" stroke="none" stroke-width="1"/><path id="eejmv9k11jyw72" d="M222.696000,247.673000C181.413000,243.670000,148.516000,245.184000,128.443000,247.078000C128.443000,247.078000,128.280000,247.132000,128.010000,247.132000C123.086000,247.836000,121.301000,252.705000,120.760000,257.358000L120.760000,318.445000C120.760000,323.856000,124.385000,328.292000,128.876000,328.292000C133.366000,328.292000,136.992000,323.910000,136.992000,318.445000L136.992000,255.898000C136.992000,254.112000,138.452000,252.651000,140.238000,252.651000C142.023000,252.651000,143.484000,254.112000,143.484000,255.898000L143.484000,318.445000C143.484000,323.856000,147.109000,328.292000,151.600000,328.292000C156.091000,328.292000,159.716000,323.910000,159.716000,318.445000L159.716000,255.898000C159.716000,254.112000,161.177000,252.651000,162.963000,252.651000L163.504000,252.651000C165.289000,252.651000,166.750000,254.112000,166.750000,255.898000L166.750000,318.445000C166.750000,323.856000,170.375000,328.292000,174.866000,328.292000C179.357000,328.292000,182.982000,323.910000,182.982000,318.445000L182.982000,255.898000C182.982000,254.112000,184.443000,252.651000,186.229000,252.651000L186.770000,252.651000C188.555000,252.651000,190.016000,254.112000,190.016000,255.898000L190.016000,318.445000C190.016000,323.856000,193.641000,328.292000,198.132000,328.292000C202.623000,328.292000,206.248000,323.910000,206.248000,318.445000L206.248000,255.898000C206.248000,254.112000,207.709000,252.651000,209.494000,252.651000C211.280000,252.651000,212.741000,254.112000,212.741000,255.898000L212.741000,318.445000C212.741000,323.856000,216.366000,328.292000,220.857000,328.292000C225.348000,328.292000,228.973000,323.910000,228.973000,318.445000L228.973000,260.389000C228.919000,250.054000,223.021000,247.782000,222.696000,247.673000Z" fill="rgb(4,178,147)" stroke="none" stroke-width="1"/><path id="eejmv9k11jyw73" d="M209.332000,200.709000C209.332000,200.817000,209.332000,200.871000,209.332000,200.979000C209.332000,205.741000,205.491000,209.582000,200.729000,209.582000C195.968000,209.582000,192.126000,205.741000,192.126000,200.979000C192.126000,200.871000,192.126000,200.817000,192.126000,200.709000L186.661000,200.709000C186.661000,200.817000,186.661000,200.871000,186.661000,200.979000C186.661000,208.771000,192.992000,215.047000,200.729000,215.047000C208.520000,215.047000,214.797000,208.717000,214.797000,200.979000C214.797000,200.871000,214.797000,200.817000,214.797000,200.709000L209.332000,200.709000Z" fill="rgb(255,255,255)" stroke="none" stroke-width="1"/><path id="eejmv9k11jyw74" d="M192.126000,200.709000C192.126000,200.817000,192.126000,200.871000,192.126000,200.979000C192.126000,205.741000,195.968000,209.582000,200.729000,209.582000C205.490000,209.582000,209.332000,205.741000,209.332000,200.979000C209.332000,200.871000,209.332000,200.817000,209.332000,200.709000L192.126000,200.709000Z" fill="rgb(77,77,77)" stroke="none" stroke-width="1"/><path id="eejmv9k11jyw75" d="M157.931000,200.709000C157.931000,200.817000,157.931000,200.871000,157.931000,200.979000C157.931000,205.741000,154.089000,209.582000,149.328000,209.582000C144.566000,209.582000,140.725000,205.741000,140.725000,200.979000C140.725000,200.871000,140.725000,200.817000,140.725000,200.709000L135.260000,200.709000C135.260000,200.817000,135.260000,200.871000,135.260000,200.979000C135.260000,208.771000,141.591000,215.047000,149.328000,215.047000C157.119000,215.047000,163.396000,208.717000,163.396000,200.979000C163.396000,200.871000,163.396000,200.817000,163.396000,200.709000L157.931000,200.709000Z" fill="rgb(255,255,255)" stroke="none" stroke-width="1"/><path id="eejmv9k11jyw76" d="M140.725000,200.709000C140.725000,200.817000,140.725000,200.871000,140.725000,200.979000C140.725000,205.741000,144.566000,209.582000,149.328000,209.582000C154.089000,209.582000,157.931000,205.741000,157.931000,200.979000C157.931000,200.871000,157.931000,200.817000,157.931000,200.709000L140.725000,200.709000Z" fill="rgb(77,77,77)" stroke="none" stroke-width="1"/></g><g id="eejmv9k11jyw77" transform="matrix(1 0 0 1 0 -500.00000238000001)"><path id="eejmv9k11jyw78" d="M96.135500,92.441300L68,106.563000L68,78.373600L96.135500,92.441300Z" fill="rgb(83,226,83)" stroke="none" stroke-width="1"/><path id="eejmv9k11jyw79" d="M165.663000,4.950760L80.444600,92.441300L274.363000,92.441300L189.145000,4.950760C182.706000,-1.650250,172.101000,-1.650250,165.663000,4.950760Z" fill="rgb(83,226,83)" stroke="none" stroke-width="1"/><path id="eejmv9k11jyw80" d="M80.065800,92.441300C85.801100,97.797800,96.730700,106.509000,106.524000,106.509000C120.592000,106.509000,247.364000,106.509000,247.364000,106.509000C247.364000,106.509000,268.736000,104.832000,272.577000,92.441300L80.065800,92.441300Z" fill="rgb(234,249,156)" stroke="none" stroke-width="1"/><path id="eejmv9k11jyw81" d="M277.772000,97.797900L272.740000,92.928300C271.766000,91.954300,271.766000,90.439300,272.740000,89.465400L277.772000,84.595800C278.746000,83.621900,280.261000,83.621900,281.234000,84.595800C282.208000,85.569700,282.208000,87.084700,281.234000,88.058700L277.934000,91.196800L281.234000,94.335000C282.208000,95.309000,282.208000,96.823900,281.234000,97.797900C280.261000,98.717700,278.691000,98.717700,277.772000,97.797900Z" fill="rgb(162,229,217)" stroke="none" stroke-width="1"/><path id="eejmv9k11jyw82" d="M242.224000,88.437400C247.363000,88.437400,251.530000,84.270800,251.530000,79.131000C251.530000,73.991300,247.363000,69.824700,242.224000,69.824700C237.084000,69.824700,232.917000,73.991300,232.917000,79.131000C232.917000,84.270800,237.084000,88.437400,242.224000,88.437400Z" fill="rgb(255,255,255)" stroke="none" stroke-width="1"/><path id="eejmv9k11jyw83" d="M242.224000,84.163000C240.113000,84.163000,238.166000,82.810300,237.462000,80.808300C236.759000,78.860500,237.354000,76.588000,238.923000,75.235400C240.600000,73.828600,243.035000,73.666300,244.875000,74.802500C246.660000,75.884600,247.580000,78.048900,247.147000,80.105000C246.714000,82.431500,244.604000,84.163000,242.224000,84.163000Z" fill="rgb(57,59,133)" stroke="none" stroke-width="1"/><path id="eejmv9k11jyw84" d="M173.238000,55.811000C173.238000,57.758900,174.807000,59.382100,176.809000,59.382100C178.756000,59.382100,180.380000,57.813000,180.380000,55.811000C180.380000,53.863200,178.811000,52.240000,176.809000,52.240000C174.807000,52.240000,173.238000,53.863200,173.238000,55.811000Z" fill="rgb(0,170,255)" stroke="none" stroke-width="1"/><path id="eejmv9k11jyw85" d="M183.896000,28.054300C183.896000,30.002100,185.466000,31.625300,187.468000,31.625300C189.415000,31.625300,191.039000,30.056200,191.039000,28.054300C191.039000,26.052400,189.469000,24.483300,187.468000,24.483300C185.466000,24.483300,183.896000,26.106500,183.896000,28.054300Z" fill="rgb(0,170,255)" stroke="none" stroke-width="1"/><path id="eejmv9k11jyw86" d="M155.869000,79.672100C155.869000,81.619900,157.438000,83.243100,159.440000,83.243100C161.388000,83.243100,163.011000,81.674000,163.011000,79.672100C163.011000,77.724200,161.442000,76.101000,159.440000,76.101000C157.493000,76.155100,155.869000,77.724200,155.869000,79.672100Z" fill="rgb(0,170,255)" stroke="none" stroke-width="1"/><path id="eejmv9k11jyw87" d="M153.543000,39.362600C153.543000,41.310400,155.112000,42.933600,157.114000,42.933600C159.062000,42.933600,160.685000,41.364500,160.685000,39.362600C160.685000,37.414700,159.116000,35.791500,157.114000,35.791500C155.166000,35.845700,153.543000,37.414700,153.543000,39.362600Z" fill="rgb(0,170,255)" stroke="none" stroke-width="1"/><path id="eejmv9k11jyw88" d="M179.893000,68.039100C179.893000,69.987000,181.462000,71.610200,183.464000,71.610200C185.411000,71.610200,187.035000,70.041100,187.035000,68.039100C187.035000,66.091300,185.466000,64.468100,183.464000,64.468100C181.462000,64.468100,179.893000,66.091300,179.893000,68.039100Z" fill="rgb(0,170,255)" stroke="none" stroke-width="1"/><path id="eejmv9k11jyw89" d="M157.871000,54.025500C157.871000,55.973300,159.440000,57.596500,161.442000,57.596500C163.390000,57.596500,165.013000,56.027400,165.013000,54.025500C165.013000,52.077700,163.444000,50.454500,161.442000,50.454500C159.494000,50.508600,157.871000,52.077700,157.871000,54.025500Z" fill="rgb(0,170,255)" stroke="none" stroke-width="1"/><path id="eejmv9k11jyw90" d="M186.331000,45.909500C186.331000,47.857400,187.900000,49.480600,189.902000,49.480600C191.850000,49.480600,193.473000,47.911500,193.473000,45.909500C193.473000,43.961700,191.904000,42.338500,189.902000,42.338500C187.954000,42.392600,186.331000,43.961700,186.331000,45.909500Z" fill="rgb(0,170,255)" stroke="none" stroke-width="1"/><path id="eejmv9k11jyw91" d="M163.877000,67.714500C163.877000,69.662300,165.446000,71.285500,167.448000,71.285500C169.396000,71.285500,171.019000,69.716500,171.019000,67.714500C171.019000,65.766700,169.450000,64.143500,167.448000,64.143500C165.500000,64.143500,163.877000,65.712600,163.877000,67.714500Z" fill="rgb(0,170,255)" stroke="none" stroke-width="1"/><path id="eejmv9k11jyw92" d="M150.242000,64.576300C150.242000,66.524200,151.811000,68.147400,153.813000,68.147400C155.761000,68.147400,157.384000,66.578300,157.384000,64.576300C157.384000,62.628500,155.815000,61.005300,153.813000,61.005300C151.811000,61.059400,150.242000,62.628500,150.242000,64.576300Z" fill="rgb(0,170,255)" stroke="none" stroke-width="1"/><path id="eejmv9k11jyw93" d="M172.534000,79.022800C172.534000,80.970600,174.103000,82.593800,176.105000,82.593800C178.053000,82.593800,179.676000,81.024700,179.676000,79.022800C179.676000,77.074900,178.107000,75.451800,176.105000,75.451800C174.157000,75.451800,172.534000,77.074900,172.534000,79.022800Z" fill="rgb(0,170,255)" stroke="none" stroke-width="1"/><path id="eejmv9k11jyw94" d="M170.803000,39.741300C171.019000,41.689200,172.751000,43.096000,174.698000,42.879500C176.646000,42.663100,178.053000,40.931700,177.837000,38.983800C177.620000,37.036000,175.889000,35.629200,173.941000,35.845700C171.993000,36.062100,170.586000,37.793500,170.803000,39.741300Z" fill="rgb(0,170,255)" stroke="none" stroke-width="1"/><path id="eejmv9k11jyw95" d="M140.178000,54.241900C140.178000,56.189800,141.747000,57.813000,143.749000,57.813000C145.697000,57.813000,147.320000,56.243900,147.320000,54.241900C147.320000,52.294100,145.751000,50.670900,143.749000,50.670900C141.802000,50.725000,140.178000,52.294100,140.178000,54.241900Z" fill="rgb(0,170,255)" stroke="none" stroke-width="1"/><path id="eejmv9k11jyw96" d="M136.824000,74.153200C136.824000,76.101100,138.393000,77.724300,140.395000,77.724300C142.343000,77.724300,143.966000,76.155200,143.966000,74.153200C143.966000,72.205400,142.397000,70.582200,140.395000,70.582200C138.447000,70.582200,136.824000,72.205400,136.824000,74.153200Z" fill="rgb(0,170,255)" stroke="none" stroke-width="1"/><path id="eejmv9k11jyw97" d="M219.769000,90.709900C215.224000,90.709900,211.545000,87.030600,211.545000,82.485700C211.545000,77.940700,215.224000,74.261400,219.769000,74.261400L219.769000,90.709900Z" fill="rgb(254,255,39)" stroke="none" stroke-width="1"/></g><script><![CDATA[!function(t,n){"object"==typeof exports&&"undefined"!=typeof module?module.exports=n():"function"==typeof define&&define.amd?define(n):(t=t||self).__SVGATOR_PLAYER__=n()}(this,(function(){"use strict";function t(n){return(t="function"==typeof Symbol&&"symbol"==typeof Symbol.iterator?function(t){return typeof t}:function(t){return t&&"function"==typeof Symbol&&t.constructor===Symbol&&t!==Symbol.prototype?"symbol":typeof t})(n)}function n(t,n){if(!(t instanceof n))throw new TypeError("Cannot call a class as a function")}function r(t,n){for(var r=0;r<n.length;r++){var e=n[r];e.enumerable=e.enumerable||!1,e.configurable=!0,"value"in e&&(e.writable=!0),Object.defineProperty(t,e.key,e)}}function e(t,n,e){return n&&r(t.prototype,n),e&&r(t,e),t}var i=1e-5,u=Math.abs;function o(t){return t}function a(t,n,r){var e=1-r;return 3*r*e*(t*e+n*r)+r*r*r}function l(){var t=arguments.length>0&&void 0!==arguments[0]?arguments[0]:0,n=arguments.length>1&&void 0!==arguments[1]?arguments[1]:0,r=arguments.length>2&&void 0!==arguments[2]?arguments[2]:1,e=arguments.length>3&&void 0!==arguments[3]?arguments[3]:1;return t<0||t>1||r<0||r>1?null:u(t-n)<=i&&u(r-e)<=i?o:function(o){if(o<=0)return t>0?o*n/t:0===n&&r>0?o*e/r:0;if(o>=1)return r<1?1+(o-1)*(e-1)/(r-1):1===r&&t<1?1+(o-1)*(n-1)/(t-1):1;for(var l,f=0,s=1;f<s;){var c=a(t,r,l=(f+s)/2);if(u(o-c)<i)break;c<o?f=l:s=l}return a(n,e,l)}}function f(){return 1}function s(t){return 1===t?1:0}function c(){var t=arguments.length>0&&void 0!==arguments[0]?arguments[0]:1,n=arguments.length>1&&void 0!==arguments[1]?arguments[1]:0;if(1===t){if(0===n)return s;if(1===n)return f}var r=1/t;return function(t){return t>=1?1:(t+=n*r)-t%r}}function v(t){var n=arguments.length>1&&void 0!==arguments[1]?arguments[1]:2;if(Number.isInteger(t))return t;var r=Math.pow(10,n);return Math.round(t*r)/r}var h=Math.PI/180;function y(t,n,r){return t>=.5?r:n}function d(t,n,r){return 0===t||n===r?n:t*(r-n)+n}function g(t,n,r){var e=d(t,n,r);return e<=0?0:e}function m(t,n,r){return 0===t?n:1===t?r:{x:d(t,n.x,r.x),y:d(t,n.y,r.y)}}function p(t,n,r){return 0===t?n:1===t?r:{x:g(t,n.x,r.x),y:g(t,n.y,r.y)}}function b(t,n,r){var e=function(t,n,r){return Math.round(d(t,n,r))}(t,n,r);return e<=0?0:e>=255?255:e}function w(t,n,r){return 0===t?n:1===t?r:{r:b(t,n.r,r.r),g:b(t,n.g,r.g),b:b(t,n.b,r.b),a:d(t,null==n.a?1:n.a,null==r.a?1:r.a)}}function A(t,n,r){if(0===t)return n;if(1===t)return r;var e=n.length;if(e!==r.length)return y(t,n,r);for(var i=[],u=0;u<e;u++)i.push(w(t,n[u],r[u]));return i}function x(t,n,r){var e=n.length;if(e!==r.length)return y(t,n,r);for(var i=new Array(e),u=0;u<e;u++)i[u]=d(t,n[u],r[u]);return i}function k(t,n){for(var r=[],e=0;e<t;e++)r.push(n);return r}function S(t,n){if(--n<=0)return t;var r=(t=Object.assign([],t)).length;do{for(var e=0;e<r;e++)t.push(t[e])}while(--n>0);return t}var _=6,M=/\.0+$/g;function I(t){return Number.isInteger(t)?t+"":t.toFixed(_).replace(M,"")}function E(t){var n=arguments.length>1&&void 0!==arguments[1]?arguments[1]:" ";return t&&t.length?t.map(I).join(n):""}function F(t){return I(t.x)+","+I(t.y)}function B(t){return t?null==t.a||t.a>=1?"rgb("+t.r+","+t.g+","+t.b+")":"rgba("+t.r+","+t.g+","+t.b+","+t.a+")":"transparent"}var j={f:null,i:p,u:function(t,n){return function(r){var e=n(r);t.setAttribute("rx",I(e.x)),t.setAttribute("ry",I(e.y))}}},q={f:null,i:function(t,n,r){return 0===t?n:1===t?r:{width:g(t,n.width,r.width),height:g(t,n.height,r.height)}},u:function(t,n){return function(r){var e=n(r);t.setAttribute("width",I(e.width)),t.setAttribute("height",I(e.height))}}},P=Math.sin,O=Math.cos,z=Math.acos,L=Math.asin,C=Math.tan,R=Math.atan2,T=Math.PI/180,V=180/Math.PI,D=Math.sqrt,N=function(){function t(){var r=arguments.length>0&&void 0!==arguments[0]?arguments[0]:1,e=arguments.length>1&&void 0!==arguments[1]?arguments[1]:0,i=arguments.length>2&&void 0!==arguments[2]?arguments[2]:0,u=arguments.length>3&&void 0!==arguments[3]?arguments[3]:1,o=arguments.length>4&&void 0!==arguments[4]?arguments[4]:0,a=arguments.length>5&&void 0!==arguments[5]?arguments[5]:0;n(this,t),this.m=[r,e,i,u,o,a],this.i=null,this.w=null,this.s=null}return e(t,[{key:"point",value:function(t,n){var r=this.m;return{x:r[0]*t+r[2]*n+r[4],y:r[1]*t+r[3]*n+r[5]}}},{key:"translateSelf",value:function(){var t=arguments.length>0&&void 0!==arguments[0]?arguments[0]:0,n=arguments.length>1&&void 0!==arguments[1]?arguments[1]:0;if(!t&&!n)return this;var r=this.m;return r[4]+=r[0]*t+r[2]*n,r[5]+=r[1]*t+r[3]*n,this.w=this.s=this.i=null,this}},{key:"rotateSelf",value:function(){var t=arguments.length>0&&void 0!==arguments[0]?arguments[0]:0;if(t%=360){var n=P(t*=T),r=O(t),e=this.m,i=e[0],u=e[1];e[0]=i*r+e[2]*n,e[1]=u*r+e[3]*n,e[2]=e[2]*r-i*n,e[3]=e[3]*r-u*n,this.w=this.s=this.i=null}return this}},{key:"scaleSelf",value:function(){var t=arguments.length>0&&void 0!==arguments[0]?arguments[0]:1,n=arguments.length>1&&void 0!==arguments[1]?arguments[1]:1;if(1!==t||1!==n){var r=this.m;r[0]*=t,r[1]*=t,r[2]*=n,r[3]*=n,this.w=this.s=this.i=null}return this}},{key:"skewSelf",value:function(t,n){if(n%=360,(t%=360)||n){var r=this.m,e=r[0],i=r[1],u=r[2],o=r[3];t&&(t=C(t*T),r[2]+=e*t,r[3]+=i*t),n&&(n=C(n*T),r[0]+=u*n,r[1]+=o*n),this.w=this.s=this.i=null}return this}},{key:"resetSelf",value:function(){var t=arguments.length>0&&void 0!==arguments[0]?arguments[0]:1,n=arguments.length>1&&void 0!==arguments[1]?arguments[1]:0,r=arguments.length>2&&void 0!==arguments[2]?arguments[2]:0,e=arguments.length>3&&void 0!==arguments[3]?arguments[3]:1,i=arguments.length>4&&void 0!==arguments[4]?arguments[4]:0,u=arguments.length>5&&void 0!==arguments[5]?arguments[5]:0,o=this.m;return o[0]=t,o[1]=n,o[2]=r,o[3]=e,o[4]=i,o[5]=u,this.w=this.s=this.i=null,this}},{key:"recomposeSelf",value:function(){var t=arguments.length>0&&void 0!==arguments[0]?arguments[0]:null,n=arguments.length>1&&void 0!==arguments[1]?arguments[1]:null,r=arguments.length>2&&void 0!==arguments[2]?arguments[2]:null,e=arguments.length>3&&void 0!==arguments[3]?arguments[3]:null,i=arguments.length>4&&void 0!==arguments[4]?arguments[4]:null;return this.isIdentity||this.resetSelf(),t&&(t.x||t.y)&&this.translateSelf(t.x,t.y),n&&this.rotateSelf(n),r&&(r.x&&this.skewSelf(r.x,0),r.y&&this.skewSelf(0,r.y)),!e||1===e.x&&1===e.y||this.scaleSelf(e.x,e.y),i&&(i.x||i.y)&&this.translateSelf(i.x,i.y),this}},{key:"decompose",value:function(){var t=arguments.length>0&&void 0!==arguments[0]?arguments[0]:0,n=arguments.length>1&&void 0!==arguments[1]?arguments[1]:0,r=this.m,e=r[0]*r[0]+r[1]*r[1],i=[[r[0],r[1]],[r[2],r[3]]],u=D(e);if(0===u)return{origin:{x:r[4],y:r[5]},translate:{x:t,y:n},scale:{x:0,y:0},skew:{x:0,y:0},rotate:0};i[0][0]/=u,i[0][1]/=u;var o=r[0]*r[3]-r[1]*r[2]<0;o&&(u=-u);var a=i[0][0]*i[1][0]+i[0][1]*i[1][1];i[1][0]-=i[0][0]*a,i[1][1]-=i[0][1]*a;var l=D(i[1][0]*i[1][0]+i[1][1]*i[1][1]);if(0===l)return{origin:{x:r[4],y:r[5]},translate:{x:t,y:n},scale:{x:u,y:0},skew:{x:0,y:0},rotate:0};i[1][0]/=l,i[1][1]/=l,a/=l;var f=0;return i[1][1]<0?(f=z(i[1][1])*V,i[0][1]<0&&(f=360-f)):f=L(i[0][1])*V,o&&(f=-f),a=R(a,D(i[0][0]*i[0][0]+i[0][1]*i[0][1]))*V,{origin:{x:r[4],y:r[5]},translate:{x:t,y:n},scale:{x:u,y:l},skew:{x:a,y:0},rotate:f}}},{key:"toString",value:function(){return null===this.s&&(this.s="matrix("+this.m.map($).join(" ")+")"),this.s}},{key:"determinant",get:function(){var t=this.m;return t[0]*t[3]-t[1]*t[2]}},{key:"isIdentity",get:function(){if(null===this.i){var t=this.m;this.i=1===t[0]&&0===t[1]&&0===t[2]&&1===t[3]&&0===t[4]&&0===t[5]}return this.i}}]),t}(),G=/\.0+$/;function $(t){return Number.isInteger(t)?t:t.toFixed(14).replace(G,"")}Object.freeze({M:2,L:2,Z:0,H:1,V:1,C:6,Q:4,T:2,S:4,A:7});function H(t,n,r){return t+(n-t)*r}function Q(t,n,r){var e=arguments.length>3&&void 0!==arguments[3]&&arguments[3],i={x:H(t.x,n.x,r),y:H(t.y,n.y,r)};return e&&(i.a=function(t,n){return Math.atan2(n.y-t.y,n.x-t.x)}(t,n)),i}function U(t,n,r,e){var i=1-e;return i*i*t+2*i*e*n+e*e*r}function Y(t,n,r,e){return 2*(1-e)*(n-t)+2*e*(r-n)}function Z(t,n,r,e){var i=arguments.length>4&&void 0!==arguments[4]&&arguments[4],u={x:U(t.x,n.x,r.x,e),y:U(t.y,n.y,r.y,e)};return i&&(u.a=function(t,n,r,e){return Math.atan2(Y(t.y,n.y,r.y,e),Y(t.x,n.x,r.x,e))}(t,n,r,e)),u}function J(t,n,r,e,i){var u=i*i;return i*u*(e-t+3*(n-r))+3*u*(t+r-2*n)+3*i*(n-t)+t}function K(t,n,r,e,i){var u=1-i;return 3*(u*u*(n-t)+2*u*i*(r-n)+i*i*(e-r))}function W(t,n,r,e,i){var u=arguments.length>5&&void 0!==arguments[5]&&arguments[5],o={x:J(t.x,n.x,r.x,e.x,i),y:J(t.y,n.y,r.y,e.y,i)};return u&&(o.a=function(t,n,r,e,i){return Math.atan2(K(t.y,n.y,r.y,e.y,i),K(t.x,n.x,r.x,e.x,i))}(t,n,r,e,i)),o}function X(t,n,r){var e,i=arguments.length>3&&void 0!==arguments[3]&&arguments[3];if(nt(n)){if(null!=(e=r).start&&!nt(e))return Z(n,r.start,r,t,i)}else if(nt(r)){if(n.end)return Z(n,n.end,r,t,i)}else{if(n.end)return r.start?W(n,n.end,r.start,r,t,i):Z(n,n.end,r,t,i);if(r.start)return Z(n,r.start,r,t,i)}return Q(n,r,t,i)}function tt(t,n,r){var e=X(t,n,r,!0);return e.a=function(t){return arguments.length>1&&void 0!==arguments[1]&&arguments[1]?t+Math.PI:t}(e.a)/h,e}function nt(t){return!t.type||"corner"===t.type}var rt=new N;var et={f:function(t){return t?t.join(" "):""},i:function(n,r,e){if(0===n)return r;if(1===n)return e;var i=r.length;if(i!==e.length)return y(n,r,e);for(var u,o=new Array(i),a=0;a<i;a++){if((u=t(r[a]))!==t(e[a]))return y(n,r,e);if("number"===u)o[a]=d(n,r[a],e[a]);else{if(r[a]!==e[a])return y(n,r,e);o[a]=r[a]}}return o}},it={f:null,i:x,u:function(t,n){return function(r){var e=n(r);t.setAttribute("x1",I(e[0])),t.setAttribute("y1",I(e[1])),t.setAttribute("x2",I(e[2])),t.setAttribute("y2",I(e[3]))}}},ut={f:I,i:d},ot={f:I,i:function(t,n,r){var e=d(t,n,r);return e<=0?0:e>=1?1:e}},at={f:E,i:function(t,n,r){var e,i,u,o=n.length,a=r.length;if(o!==a)if(0===o)n=k(o=a,0);else if(0===a)a=o,r=k(o,0);else{var l=(u=(e=o)*(i=a)/function(t,n){for(var r;n;)r=n,n=t%n,t=r;return t||1}(e,i))<0?-u:u;n=S(n,Math.floor(l/o)),r=S(r,Math.floor(l/a)),o=a=l}for(var f=[],s=0;s<o;s++)f.push(v(g(t,n[s],r[s]),6));return f}};function lt(t,n,r,e,i,u,o,a){return n=function(t,n,r){for(var e,i,u,o=t.length-1,a={},l=0;l<=o;l++)(e=t[l]).e&&(e.e=n(e.e)),e.v&&"g"===(i=e.v).t&&i.r&&(u=r.getElementById(i.r))&&(a[i.r]=u.querySelectorAll("stop"));return a}(t,e,a),function(e){var i,u=r(e,t,ft);return u?"c"===u.t?B(u.v):"g"===u.t?(n[u.r]&&function(t,n){for(var r=0,e=t.length;r<e;r++)t[r].setAttribute("stop-color",B(n[r]))}(n[u.r],u.v),(i=u.r)?"url(#"+i+")":"none"):"none":"none"}}function ft(t,n,r){if(0===t)return n;if(1===t)return r;if(n&&r){var e=n.t;if(e===r.t)switch(n.t){case"c":return{t:e,v:w(t,n.v,r.v)};case"g":if(n.r===r.r)return{t:e,v:A(t,n.v,r.v),r:n.r}}}return y(t,n,r)}var st={blur:p,brightness:g,contrast:g,"drop-shadow":function(t,n,r){return 0===t?n:1===t?r:{blur:p(t,n.blur,r.blur),offset:m(t,n.offset,r.offset),color:w(t,n.color,r.color)}},grayscale:g,"hue-rotate":d,invert:g,opacity:g,saturate:g,sepia:g};function ct(t,n,r){if(0===t)return n;if(1===t)return r;var e=n.length;if(e!==r.length)return y(t,n,r);for(var i,u=[],o=0;o<e;o++){if(n[o].type!==r[o].type)return n;if(!(i=st[n[o].type]))return y(t,n,r);u.push({type:n.type,value:i(t,n[o].value,r[o].value)})}return u}var vt={blur:function(t){return t?function(n){t.setAttribute("stdDeviation",F(n))}:null},brightness:function(t,n,r){return(t=yt(r,n))?function(n){n=I(n),t.map((function(t){return t.setAttribute("slope",n)}))}:null},contrast:function(t,n,r){return(t=yt(r,n))?function(n){var r=I((1-n)/2);n=I(n),t.map((function(t){t.setAttribute("slope",n),t.setAttribute("intercept",r)}))}:null},"drop-shadow":function(t,n,r){var e=r.getElementById(n+"-blur");if(!e)return null;var i=r.getElementById(n+"-offset");if(!i)return null;var u=r.getElementById(n+"-flood");return u?function(t){e.setAttribute("stdDeviation",F(t.blur)),i.setAttribute("dx",I(t.offset.x)),i.setAttribute("dy",I(t.offset.y)),u.setAttribute("flood-color",B(t.color))}:null},grayscale:function(t){return t?function(n){t.setAttribute("values",E(function(t){return[.2126+.7874*(t=1-t),.7152-.7152*t,.0722-.0722*t,0,0,.2126-.2126*t,.7152+.2848*t,.0722-.0722*t,0,0,.2126-.2126*t,.7152-.7152*t,.0722+.9278*t,0,0,0,0,0,1,0]}(n)))}:null},"hue-rotate":function(t){return t?function(n){return t.setAttribute("values",I(n))}:null},invert:function(t,n,r){return(t=yt(r,n))?function(n){n=I(n)+" "+I(1-n),t.map((function(t){return t.setAttribute("tableValues",n)}))}:null},opacity:function(t,n,r){return(t=r.getElementById(n+"-A"))?function(n){return t.setAttribute("tableValues","0 "+I(n))}:null},saturate:function(t){return t?function(n){return t.setAttribute("values",I(n))}:null},sepia:function(t){return t?function(n){return t.setAttribute("values",E(function(t){return[.393+.607*(t=1-t),.769-.769*t,.189-.189*t,0,0,.349-.349*t,.686+.314*t,.168-.168*t,0,0,.272-.272*t,.534-.534*t,.131+.869*t,0,0,0,0,0,1,0]}(n)))}:null}};var ht=["R","G","B"];function yt(t,n){var r=ht.map((function(r){return t.getElementById(n+"-"+r)||null}));return-1!==r.indexOf(null)?null:r}var dt={fill:lt,"fill-opacity":ot,stroke:lt,"stroke-opacity":ot,"stroke-width":ut,"stroke-dashoffset":{f:I,i:d},"stroke-dasharray":at,opacity:ot,transform:function(n,r,e,i){if(!(n=function(n,r){if(!n||"object"!==t(n))return null;var e=!1;for(var i in n)n.hasOwnProperty(i)&&(n[i]&&n[i].length?(n[i].forEach((function(t){t.e&&(t.e=r(t.e))})),e=!0):delete n[i]);return e?n:null}(n,i)))return null;var u=function(t,i,u){var o=arguments.length>3&&void 0!==arguments[3]?arguments[3]:null;return n[t]?e(i,n[t],u):r&&r[t]?r[t]:o};return r&&r.a&&n.o?function(t){var r=e(t,n.o,tt);return rt.recomposeSelf(r,u("r",t,d,0)+r.a,u("k",t,m),u("s",t,m),u("t",t,m)).toString()}:function(t){return rt.recomposeSelf(u("o",t,X,null),u("r",t,d,0),u("k",t,m),u("s",t,m),u("t",t,m)).toString()}},"#filter":function(t,n,r,e,i,u,o,a){if(!n.items||!t||!t.length)return null;var l=function(t,n){var r=(t=t.map((function(t){return t&&vt[t[0]]?(n.getElementById(t[1]),vt[t[0]](n.getElementById(t[1]),t[1],n)):null}))).length;return function(n){for(var e=0;e<r;e++)t[e]&&t[e](n[e].value)}}(n.items,a);return l?(t=function(t,n){return t.map((function(t){return t.e=n(t.e),t}))}(t,e),function(n){l(r(n,t,ct))}):null},"#line":it,points:{f:E,i:x},d:et,r:ut,"#size":q,"#radius":j,_:function(t,n){if(Array.isArray(t))for(var r=0;r<t.length;r++)this[t[r]]=n;else this[t]=n}},gt=function(){function t(r){n(this,t),this.list=r,this.length=r.length}return e(t,[{key:"setAttribute",value:function(t,n){for(var r=this.list,e=0;e<this.length;e++)r[e].setAttribute(t,n)}},{key:"removeAttribute",value:function(t){for(var n=this.list,r=0;r<this.length;r++)n[r].removeAttribute(t)}},{key:"style",value:function(t,n){for(var r=this.list,e=0;e<this.length;e++)r[e].style[t]=n}}]),t}(),mt=/-./g,pt=function(t,n){return n.toUpperCase()};function bt(t){return"function"==typeof t?t:y}function wt(t){return t?"function"==typeof t?t:Array.isArray(t)?function(t){var n=arguments.length>1&&void 0!==arguments[1]?arguments[1]:o;if(!Array.isArray(t))return n;switch(t.length){case 1:return c(t[0])||n;case 2:return c(t[0],t[1])||n;case 4:return l(t[0],t[1],t[2],t[3])||n}return n}(t,null):function(t,n){var r=arguments.length>2&&void 0!==arguments[2]?arguments[2]:o;switch(t){case"linear":return o;case"steps":return c(n.steps||1,n.jump||0)||r;case"bezier":case"cubic-bezier":return l(n.x1||0,n.y1||0,n.x2||0,n.y2||0)||r}return r}(t.type,t.value,null):null}function At(t,n,r){var e=arguments.length>3&&void 0!==arguments[3]&&arguments[3],i=n.length-1;if(t<=n[0].t)return e?[0,0,n[0].v]:n[0].v;if(t>=n[i].t)return e?[i,1,n[i].v]:n[i].v;var u,o=n[0],a=null;for(u=1;u<=i;u++){if(!(t>n[u].t)){a=n[u];break}o=n[u]}return null==a?e?[i,1,n[i].v]:n[i].v:o.t===a.t?e?[u,1,a.v]:a.v:(t=(t-o.t)/(a.t-o.t),o.e&&(t=o.e(t)),e?[u,t,r(t,o.v,a.v)]:r(t,o.v,a.v))}function xt(t,n){var r=arguments.length>2&&void 0!==arguments[2]?arguments[2]:null;return t&&t.length?"function"!=typeof n?null:("function"!=typeof r&&(r=null),function(e){var i=At(e,t,n);return null!=i&&r&&(i=r(i)),i}):null}function kt(t,n){return t.t-n.t}function St(n,r,e,i,u){var o,a="@"===e[0],l="#"===e[0],f=dt[e],s=y;switch(a?(o=e.substr(1),e=o.replace(mt,pt)):l&&(e=e.substr(1)),t(f)){case"function":if(s=f(i,u,At,wt,e,a,r,n),l)return s;break;case"string":s=xt(i,bt(f));break;case"object":if((s=xt(i,bt(f.i),f.f))&&"function"==typeof f.u)return f.u(r,s,e,a,n)}return s?function(t,n,r){if(arguments.length>3&&void 0!==arguments[3]&&arguments[3])return t instanceof gt?function(e){return t.style(n,r(e))}:function(e){return t.style[n]=r(e)};if(Array.isArray(n)){var e=n.length;return function(i){var u=r(i);if(null==u)for(var o=0;o<e;o++)t[o].removeAttribute(n);else for(var a=0;a<e;a++)t[a].setAttribute(n,u)}}return function(e){var i=r(e);null==i?t.removeAttribute(n):t.setAttribute(n,i)}}(r,e,s,a):null}function _t(n,r,e,i){if(!i||"object"!==t(i))return null;var u=null,o=null;return Array.isArray(i)?o=function(t){if(!t||!t.length)return null;for(var n=0;n<t.length;n++)t[n].e&&(t[n].e=wt(t[n].e));return t.sort(kt)}(i):(o=i.keys,u=i.data||null),o?St(n,r,e,o,u):null}function Mt(t,n,r){if(!r)return null;var e=[];for(var i in r)if(r.hasOwnProperty(i)){var u=_t(t,n,i,r[i]);u&&e.push(u)}return e.length?e:null}function It(t,n){if(!n.duration||n.duration<0)return null;var r=function(t,n){if(!n)return null;var r=[];if(Array.isArray(n))for(var e=n.length,i=0;i<e;i++){var u=n[i];if(2===u.length){var o=null;if("string"==typeof u[0])o=t.getElementById(u[0]);else if(Array.isArray(u[0])){o=[];for(var a=0;a<u[0].length;a++)if("string"==typeof u[0][a]){var l=t.getElementById(u[0][a]);l&&o.push(l)}o=o.length?1===o.length?o[0]:new gt(o):null}if(o){var f=Mt(t,o,u[1]);f&&(r=r.concat(f))}}}else for(var s in n)if(n.hasOwnProperty(s)){var c=t.getElementById(s);if(c){var v=Mt(t,c,n[s]);v&&(r=r.concat(v))}}return r.length?r:null}(t,n.elements);return r?function(t,n){var r=arguments.length>2&&void 0!==arguments[2]?arguments[2]:1/0,e=arguments.length>3&&void 0!==arguments[3]?arguments[3]:1,i=arguments.length>4&&void 0!==arguments[4]&&arguments[4],u=arguments.length>5&&void 0!==arguments[5]?arguments[5]:1,o=t.length,a=e>0?n:0;i&&r%2==0&&(a=n-a);var l=null;return function(f,s){var c=f%n,v=1+(f-c)/n;s*=e,i&&v%2==0&&(s=-s);var h=!1;if(v>r)c=a,h=!0,-1===u&&(c=e>0?0:n);else if(s<0&&(c=n-c),c===l)return!1;l=c;for(var y=0;y<o;y++)t[y](c);return h}}(r,n.duration,n.iterations||1/0,n.direction||1,!!n.alternate,n.fill||1):null}var Et=function(){function t(r){var e=arguments.length>1&&void 0!==arguments[1]?arguments[1]:{};n(this,t),this._id=0,this._running=!1,this._animations=r,this.direction=e.direction||1,this.speed=e.speed||1,this.fps=e.fps||100,this.offset=e.offset||0}return e(t,[{key:"_start",value:function(){var t=this,n=arguments.length>0&&void 0!==arguments[0]?arguments[0]:0,r=-1/0,e=null,i={},u=function u(o){t._running=!0,null==e&&(e=o);var a=Math.round((o-e+n)*t.speed),l=t.fps?1e3/t.fps:0;if(a>r+l){t.offset=a,r=a;for(var f=t._animations,s=f.length,c=0,v=0;v<s;v++)i[v]?c++:(i[v]=f[v](a,t.direction),i[v]&&c++);if(c===s)return void t._stop()}t._id=window.requestAnimationFrame(u)};this._id=window.requestAnimationFrame(u)}},{key:"_stop",value:function(){this._id&&window.cancelAnimationFrame(this._id),this._running=!1}},{key:"play",value:function(){this._running||this._start(this.offset)}},{key:"stop",value:function(){this._stop(),this.offset=0;var t=this.direction,n=this._animations;requestAnimationFrame((function(){for(var r=0;r<n.length;r++)n[r](0,t)}))}},{key:"restart",value:function(){this._stop(),this.offset=0,this._start()}},{key:"pause",value:function(){this._stop()}},{key:"reverse",value:function(){this.direction=-this.direction}}],[{key:"build",value:function(n){if(!(n=function(t){if(!t||!t.root||!Array.isArray(t.animations))return null;var n=window.document.getElementById(t.root);if(!n)return null;var r=t.animations.map((function(t){return It(n,t)})).filter((function(t){return!!t}));return r.length?{element:n,animations:r,options:t.options||void 0}:null}(n)))return null;var r=n.element,e=n.options||{},i=new t(n.animations,n.options);return function(t,n,r){var e=arguments.length>3&&void 0!==arguments[3]?arguments[3]:null;if("click"===r){return void n.addEventListener("click",(function r(){n.removeEventListener("click",r),t.play()}))}if("hover"===r)return n.addEventListener("mouseenter",(function(){return t.play()})),void n.addEventListener("mouseleave","freeze"===e?function(){return t.pause()}:function(){return t.stop()});t.play()}(i,r,e.start,e.hover),i}}]),t}();return function(){for(var t=0,n=["ms","moz","webkit","o"],r=0;r<n.length&&!window.requestAnimationFrame;++r)window.requestAnimationFrame=window[n[r]+"RequestAnimationFrame"],window.cancelAnimationFrame=window[n[r]+"CancelAnimationFrame"]||window[n[r]+"CancelRequestAnimationFrame"];window.requestAnimationFrame||(window.requestAnimationFrame=function(n){var r=Date.now(),e=Math.max(0,16-(r-t)),i=window.setTimeout((function(){n(r+e)}),e);return t=r+e,i},window.cancelAnimationFrame=window.clearTimeout)}(),Et}));
__SVGATOR_PLAYER__.build({"root":"eejmv9k11jyw1","animations":[{"duration":3000,"direction":1,"iterations":1,"fill":1,"alternate":false,"elements":{"eejmv9k11jyw2":{"transform":{"data":{"r":-0.5454545454545454},"keys":{"o":[{"t":0,"v":{"x":0,"y":-936,"type":"corner"}},{"t":400,"v":{"x":0,"y":0,"type":"corner"}},{"t":500,"v":{"x":3.165222020000016,"y":25.199045999999953,"type":"corner"}},{"t":760,"v":{"x":0,"y":0,"type":"corner"}},{"t":1300,"v":{"x":0,"y":0,"type":"corner"}},{"t":1400,"v":{"x":7.105427357601002e-14,"y":18.899283999999966,"type":"corner"}},{"t":1500,"v":{"x":0,"y":0,"type":"corner"}},{"t":1600,"v":{"x":0,"y":0,"type":"corner"}},{"t":1700,"v":{"x":3.2874449599999878,"y":25.199045999999953,"type":"corner"}},{"t":1800,"v":{"x":0,"y":0,"type":"corner"}},{"t":1900,"v":{"x":0,"y":40.94845000000009,"type":"corner"}},{"t":2000,"v":{"x":0,"y":0,"type":"corner"}},{"t":2100,"v":{"x":0,"y":0,"type":"corner"}},{"t":2200,"v":{"x":5.0065259950000325,"y":44.09833100000003,"type":"corner"}},{"t":2300,"v":{"x":0,"y":0,"type":"corner"}}]}}},"eejmv9k11jyw14":{"transform":{"keys":{"o":[{"t":1000,"v":{"x":0,"y":-926.17633057,"type":"corner"}},{"t":1300,"v":{"x":0,"y":0,"type":"corner"}},{"t":1400,"v":{"x":7.105427357601002e-14,"y":18.899283999999966,"type":"corner"}},{"t":1500,"v":{"x":0,"y":0,"type":"corner"}},{"t":1600,"v":{"x":0,"y":0,"type":"corner"}},{"t":1700,"v":{"x":3.2874449599999878,"y":25.199045999999953,"type":"corner"}},{"t":1800,"v":{"x":0,"y":0,"type":"corner"}},{"t":1900,"v":{"x":0,"y":40.94845000000009,"type":"corner"}},{"t":2000,"v":{"x":0,"y":0,"type":"corner"}},{"t":2100,"v":{"x":0,"y":0,"type":"corner"}},{"t":2200,"v":{"x":5.0065259950000325,"y":44.09833100000003,"type":"corner"}},{"t":2300,"v":{"x":0,"y":0,"type":"corner"}}]}}},"eejmv9k11jyw42":{"transform":{"keys":{"o":[{"t":1300,"v":{"x":0,"y":-828,"type":"corner"}},{"t":1600,"v":{"x":0,"y":0,"type":"corner"}},{"t":1700,"v":{"x":3.2874449599999878,"y":25.199045999999953,"type":"corner"}},{"t":1800,"v":{"x":0,"y":0,"type":"corner"}},{"t":1900,"v":{"x":0,"y":40.94845000000009,"type":"corner"}},{"t":2000,"v":{"x":0,"y":0,"type":"corner"}},{"t":2100,"v":{"x":0,"y":0,"type":"corner"}},{"t":2200,"v":{"x":5.0065259950000325,"y":44.09833100000003,"type":"corner"}},{"t":2300,"v":{"x":0,"y":0,"type":"corner"}}]}}},"eejmv9k11jyw68":{"transform":{"keys":{"o":[{"t":1500,"v":{"x":0,"y":-606.56300354,"type":"corner"}},{"t":1800,"v":{"x":0,"y":0,"type":"corner"}},{"t":1900,"v":{"x":0,"y":40.94845000000009,"type":"corner"}},{"t":2000,"v":{"x":0,"y":0,"type":"corner"}},{"t":2100,"v":{"x":0,"y":0,"type":"corner"}},{"t":2200,"v":{"x":5.0065259950000325,"y":44.09833100000003,"type":"corner"}},{"t":2300,"v":{"x":0,"y":0,"type":"corner"}}]}}},"eejmv9k11jyw77":{"transform":{"keys":{"o":[{"t":1900,"v":{"x":0,"y":-500.00000238,"type":"corner"}},{"t":2100,"v":{"x":0,"y":0,"type":"corner"}},{"t":2200,"v":{"x":5.0065259950000325,"y":44.09833100000003,"type":"corner"}},{"t":2300,"v":{"x":0,"y":0,"type":"corner"}}]}}}}}],"options":{"start":"load","hover":"freeze"}})]]></script></svg>